<svg width="70" height="70" viewBox="0 0 70 70" fill="none" xmlns="http://www.w3.org/2000/svg">
<path d="M63.5428 23.143V13H33.0856V19.7714H29.6996V29.1224C27.2761 27.494 24.3614 26.5428 21.2286 26.5428C12.8315 26.5428 6 33.3743 6 41.7714C6 50.1685 12.8315 57 21.2286 57C26.0149 57 30.2917 54.7798 33.0856 51.3159V57H63.5428V46.857H60.1571L60.1569 36.6858H63.5428V26.5428H60.1569V23.143H63.5428ZM36.4572 16.3716H60.1711V19.7714H36.4572V16.3716ZM30.7731 29.9144H33.0856V32.2269C32.3992 31.3759 31.6241 30.6008 30.7731 29.9144ZM21.2286 53.6284C14.6906 53.6284 9.37165 48.3094 9.37165 41.7714C9.37165 35.2334 14.6906 29.9144 21.2286 29.9144C27.7666 29.9144 33.0856 35.2334 33.0856 41.7714C33.0856 48.3094 27.7666 53.6284 21.2286 53.6284ZM60.1711 50.2286V53.6284H36.4572V50.2286H60.1571H60.1711ZM35.5828 46.857C35.9734 45.7577 36.2354 44.6168 36.3634 43.4572H56.7853V46.857H35.5828ZM56.7852 40.0856H36.3635C36.2355 38.9259 35.9735 37.7851 35.5829 36.6858H56.7853V40.0856H56.7852ZM60.1711 29.9144V33.3142H36.4572V29.9144H60.1569H60.1711ZM56.7852 26.5428H33.0713V23.143H56.7852V26.5428Z" fill="white"/>
<path d="M17.7191 45.771C16.9423 45.771 16.2554 45.6085 15.6585 45.2835C15.0687 44.9515 14.6048 44.4994 14.2668 43.9271C13.9288 43.3478 13.7598 42.6837 13.7598 41.9348C13.7598 41.186 13.9288 40.5254 14.2668 39.9532C14.6048 39.3738 15.0687 38.9217 15.6585 38.5967C16.2554 38.2647 16.9423 38.0986 17.7191 38.0986C18.2009 38.0986 18.6361 38.1693 19.0244 38.3106C19.42 38.4448 19.7652 38.632 20.0601 38.8722C20.355 39.1124 20.5995 39.3879 20.7937 39.6989L19.3589 40.5466C19.251 40.3771 19.1072 40.2252 18.9273 40.091C18.7547 39.9567 18.5641 39.8543 18.3556 39.7836C18.147 39.7059 17.9348 39.6671 17.7191 39.6671C17.2947 39.6671 16.9171 39.7624 16.5863 39.9532C16.2626 40.1439 16.0073 40.4124 15.8203 40.7586C15.6333 41.0977 15.5398 41.4898 15.5398 41.9348C15.5398 42.3799 15.6297 42.7756 15.8095 43.1217C15.9893 43.4608 16.2483 43.7293 16.5863 43.9271C16.9243 44.1249 17.3163 44.2238 17.7622 44.2238C18.1002 44.2238 18.3987 44.1602 18.6576 44.0331C18.9166 43.9059 19.1215 43.7293 19.2726 43.5032C19.4236 43.2772 19.4991 43.0122 19.4991 42.7084L21.1497 42.4329C21.1497 43.1535 21.0023 43.7646 20.7074 44.2662C20.4125 44.7607 20.0098 45.1352 19.4991 45.3895C18.9885 45.6438 18.3951 45.771 17.7191 45.771ZM17.773 42.8886V41.5745H21.1497V42.5813L20.1788 42.8886H17.773ZM25.6199 45.771C24.8719 45.771 24.2102 45.6085 23.6349 45.2835C23.0667 44.9515 22.6172 44.4994 22.2863 43.9271C21.9627 43.3478 21.8009 42.6837 21.8009 41.9348C21.8009 41.186 21.9627 40.5254 22.2863 39.9532C22.6172 39.3738 23.0667 38.9217 23.6349 38.5967C24.2102 38.2647 24.8719 38.0986 25.6199 38.0986C26.1665 38.0986 26.6664 38.194 27.1195 38.3848C27.5798 38.5684 27.9753 38.8298 28.3062 39.1689C28.6442 39.508 28.9031 39.9002 29.0829 40.3453L27.4539 40.8857C27.346 40.6385 27.1986 40.423 27.0116 40.2393C26.8318 40.0556 26.6232 39.9143 26.3859 39.8154C26.1557 39.7165 25.9004 39.6671 25.6199 39.6671C25.2243 39.6671 24.8719 39.7624 24.5627 39.9532C24.2534 40.1439 24.0125 40.4124 23.8398 40.7586C23.6672 41.0977 23.5809 41.4898 23.5809 41.9348C23.5809 42.3799 23.6672 42.7756 23.8398 43.1217C24.0196 43.4608 24.2642 43.7293 24.5734 43.9271C24.8899 44.1179 25.2495 44.2132 25.6523 44.2132C25.9471 44.2132 26.2097 44.1602 26.4398 44.0543C26.67 43.9483 26.8677 43.7999 27.0332 43.6092C27.2058 43.4184 27.3532 43.1994 27.4755 42.9522L29.1045 43.4926C28.9319 43.9448 28.6766 44.3439 28.3385 44.6901C28.0005 45.0292 27.6013 45.2941 27.141 45.4849C26.6807 45.6756 26.1737 45.771 25.6199 45.771Z" fill="white"/>
</svg>
