<svg width="70" height="70" viewBox="0 0 70 70" fill="none" xmlns="http://www.w3.org/2000/svg">
<path d="M55 27.3574H44.9335C45.4797 26.4269 45.7672 25.3688 45.7663 24.2915C45.7663 20.9208 43.0077 18.1786 39.6168 18.1786C37.7789 18.1786 36.1278 18.9853 34.9999 20.2601C33.872 18.9853 32.221 18.1786 30.383 18.1786C26.9921 18.1786 24.2335 20.9208 24.2335 24.2915C24.2327 25.3688 24.5201 26.4269 25.0663 27.3574H15V36.5234H18.0779V61H51.9221V36.5234H55V27.3574ZM39.6169 21.2256C41.3176 21.2256 42.7013 22.6009 42.7013 24.2916C42.7013 25.9822 41.3176 27.3575 39.6169 27.3575H36.5326V24.2916C36.5326 22.6009 37.9162 21.2256 39.6169 21.2256ZM36.5453 33.4766H33.4547V30.4043H36.5453V33.4766ZM27.2989 24.2915C27.2989 22.6008 28.6825 21.2255 30.3832 21.2255C32.0839 21.2255 33.4674 22.6009 33.4674 24.2915V27.3574H30.3832C28.6825 27.3574 27.2989 25.9821 27.2989 24.2915ZM18.0651 33.4766V30.4043H30.3894V33.4766H18.0778H18.0651ZM21.143 57.9531V36.5234H30.3895V57.9531H21.143ZM33.4547 57.9531V36.5234H36.5453V57.9531H33.4547ZM48.857 57.9531H39.6105V36.5234H48.857V57.9531ZM51.9349 33.4766H39.6105V30.4043H51.9349V33.4766ZM23.348 12.2379L26.0361 10.7754L28.5005 15.2513L25.8124 16.7138L23.348 12.2379ZM41.4958 15.2658L43.9602 10.7899L46.6483 12.2524L44.184 16.7283L41.4958 15.2658ZM33.4674 9H36.5326V12.7705H33.4674V9ZM49.8144 18.2079L52.4962 15.542L54.6632 17.6962L51.9815 20.362L49.8144 18.2079ZM15.5104 17.6925L17.6775 15.5384L20.3592 18.2041L18.1921 20.3582L15.5104 17.6925Z" fill="white"/>
</svg>
