<svg width="70" height="70" viewBox="0 0 70 70" fill="none" xmlns="http://www.w3.org/2000/svg">
<path d="M44.7865 19.7268L38.3697 18.7972L35.5 13L32.6302 18.7973L26.2134 19.7269L30.8566 24.2394L29.7606 30.6112L35.5 27.6028L41.2394 30.6111L40.1433 24.2393L44.7865 19.7268ZM37.1149 24.9514L35.5 24.105L33.8849 24.9514L34.1933 23.1586L32.8869 21.8887L34.6925 21.6272L35.5 19.996L36.3075 21.6272L38.113 21.8887L36.8066 23.1586L37.1149 24.9514ZM55.9368 53.9038V40.0274H43.3475V34.2949H27.6525V40.0274H15.0632V53.9038H9V57H62V53.9038H55.9368ZM27.6525 53.9038H18.1687V43.1236H27.6525V53.9038ZM40.2419 40.0274V53.9038H30.7579V37.3911H40.2419V40.0274ZM52.8313 53.9038H43.3475V43.1236H52.8313V53.9038Z" fill="white"/>
</svg>
