<svg width="24" height="24" viewBox="0 0 24 24" fill="none" xmlns="http://www.w3.org/2000/svg">
<g clip-path="url(#clip0_608_2135)">
<mask id="mask0_608_2135" style="mask-type:luminance" maskUnits="userSpaceOnUse" x="0" y="0" width="24" height="24">
<path d="M24 0H0V24H24V0Z" fill="white"/>
</mask>
<g mask="url(#mask0_608_2135)">
<path d="M12 24C18.6274 24 24 18.6274 24 12C24 5.37258 18.6274 0 12 0C5.37258 0 0 5.37258 0 12C0 18.6274 5.37258 24 12 24Z" fill="#F0B100"/>
<path fill-rule="evenodd" clip-rule="evenodd" d="M12 24C18.6275 24 24 18.6275 24 12C24 5.37258 18.6275 0 12 0C5.37258 0 0 5.37258 0 12C0 18.6275 5.37258 24 12 24ZM12 20.7273C16.8199 20.7273 20.7273 16.8199 20.7273 12C20.7273 7.18006 16.8199 3.27273 12 3.27273C7.18006 3.27273 3.27273 7.18006 3.27273 12C3.27273 16.8199 7.18006 20.7273 12 20.7273Z" fill="#FFE300"/>
<path fill-rule="evenodd" clip-rule="evenodd" d="M11.9987 20.7275C16.8187 20.7275 20.726 16.8201 20.726 12.0002C20.726 7.18028 16.8187 3.27295 11.9987 3.27295C7.17882 3.27295 3.27148 7.18028 3.27148 12.0002C3.27148 16.8201 7.17882 20.7275 11.9987 20.7275ZM11.9987 19.6366C16.2162 19.6366 19.6352 16.2177 19.6352 12.0002C19.6352 7.7828 16.2162 4.36386 11.9987 4.36386C7.78133 4.36386 4.3624 7.7828 4.3624 12.0002C4.3624 16.2177 7.78133 19.6366 11.9987 19.6366Z" fill="url(#paint0_linear_608_2135)"/>
<g filter="url(#filter0_dd_608_2135)">
<path d="M8.97292 15.308C8.32492 15.308 7.75192 15.17 7.25392 14.894C6.76192 14.612 6.37492 14.228 6.09292 13.742C5.81092 13.25 5.66992 12.686 5.66992 12.05C5.66992 11.414 5.81092 10.853 6.09292 10.367C6.37492 9.87499 6.76192 9.49099 7.25392 9.21499C7.75192 8.93299 8.32492 8.79199 8.97292 8.79199C9.37492 8.79199 9.73792 8.85199 10.0619 8.97199C10.3919 9.08599 10.6799 9.24499 10.9259 9.44899C11.1719 9.65299 11.3759 9.88699 11.5379 10.151L10.3409 10.871C10.2509 10.727 10.1309 10.598 9.98092 10.484C9.83692 10.37 9.67792 10.283 9.50392 10.223C9.32992 10.157 9.15292 10.124 8.97292 10.124C8.61892 10.124 8.30392 10.205 8.02792 10.367C7.75792 10.529 7.54492 10.757 7.38892 11.051C7.23292 11.339 7.15492 11.672 7.15492 12.05C7.15492 12.428 7.22992 12.764 7.37992 13.058C7.52992 13.346 7.74592 13.574 8.02792 13.742C8.30992 13.91 8.63692 13.994 9.00892 13.994C9.29092 13.994 9.53992 13.94 9.75592 13.832C9.97192 13.724 10.1429 13.574 10.2689 13.382C10.3949 13.19 10.4579 12.965 10.4579 12.707L11.8349 12.473C11.8349 13.085 11.7119 13.604 11.4659 14.03C11.2199 14.45 10.8839 14.768 10.4579 14.984C10.0319 15.2 9.53692 15.308 8.97292 15.308ZM9.01792 12.86V11.744H11.8349V12.599L11.0249 12.86H9.01792ZM15.5641 15.308C14.9401 15.308 14.3881 15.17 13.9081 14.894C13.4341 14.612 13.0591 14.228 12.7831 13.742C12.5131 13.25 12.3781 12.686 12.3781 12.05C12.3781 11.414 12.5131 10.853 12.7831 10.367C13.0591 9.87499 13.4341 9.49099 13.9081 9.21499C14.3881 8.93299 14.9401 8.79199 15.5641 8.79199C16.0201 8.79199 16.4371 8.87299 16.8151 9.03499C17.1991 9.19099 17.5291 9.41299 17.8051 9.70099C18.0871 9.98899 18.3031 10.322 18.4531 10.7L17.0941 11.159C17.0041 10.949 16.8811 10.766 16.7251 10.61C16.5751 10.454 16.4011 10.334 16.2031 10.25C16.0111 10.166 15.7981 10.124 15.5641 10.124C15.2341 10.124 14.9401 10.205 14.6821 10.367C14.4241 10.529 14.2231 10.757 14.0791 11.051C13.9351 11.339 13.8631 11.672 13.8631 12.05C13.8631 12.428 13.9351 12.764 14.0791 13.058C14.2291 13.346 14.4331 13.574 14.6911 13.742C14.9551 13.904 15.2551 13.985 15.5911 13.985C15.8371 13.985 16.0561 13.94 16.2481 13.85C16.4401 13.76 16.6051 13.634 16.7431 13.472C16.8871 13.31 17.0101 13.124 17.1121 12.914L18.4711 13.373C18.3271 13.757 18.1141 14.096 17.8321 14.39C17.5501 14.678 17.2171 14.903 16.8331 15.065C16.4491 15.227 16.0261 15.308 15.5641 15.308Z" fill="#FFEB33"/>
</g>
</g>
</g>
<defs>
<filter id="filter0_dd_608_2135" x="5.66992" y="8.39199" width="12.8008" height="7.41599" filterUnits="userSpaceOnUse" color-interpolation-filters="sRGB">
<feFlood flood-opacity="0" result="BackgroundImageFix"/>
<feColorMatrix in="SourceAlpha" type="matrix" values="0 0 0 0 0 0 0 0 0 0 0 0 0 0 0 0 0 0 127 0" result="hardAlpha"/>
<feOffset dy="-0.4"/>
<feComposite in2="hardAlpha" operator="out"/>
<feColorMatrix type="matrix" values="0 0 0 0 1 0 0 0 0 0.968627 0 0 0 0 0.72549 0 0 0 1 0"/>
<feBlend mode="normal" in2="BackgroundImageFix" result="effect1_dropShadow_608_2135"/>
<feColorMatrix in="SourceAlpha" type="matrix" values="0 0 0 0 0 0 0 0 0 0 0 0 0 0 0 0 0 0 127 0" result="hardAlpha"/>
<feOffset dy="0.5"/>
<feComposite in2="hardAlpha" operator="out"/>
<feColorMatrix type="matrix" values="0 0 0 0 0.721569 0 0 0 0 0.415686 0 0 0 0 0 0 0 0 1 0"/>
<feBlend mode="normal" in2="effect1_dropShadow_608_2135" result="effect2_dropShadow_608_2135"/>
<feBlend mode="normal" in="SourceGraphic" in2="effect2_dropShadow_608_2135" result="shape"/>
</filter>
<linearGradient id="paint0_linear_608_2135" x1="13.0878" y1="3.51309" x2="13.0878" y2="23.1488" gradientUnits="userSpaceOnUse">
<stop stop-color="#C96D00"/>
<stop offset="0.5383" stop-color="#F3AC00"/>
<stop offset="0.9876" stop-color="#FFFF00"/>
</linearGradient>
<clipPath id="clip0_608_2135">
<rect width="24" height="24" fill="white"/>
</clipPath>
</defs>
</svg>
