<svg width="24" height="24" viewBox="0 0 24 24" fill="none" xmlns="http://www.w3.org/2000/svg">
<g clip-path="url(#clip0_917_207)">
<mask id="mask0_917_207" style="mask-type:luminance" maskUnits="userSpaceOnUse" x="0" y="0" width="24" height="24">
<path d="M24 0H0V24H24V0Z" fill="white"/>
</mask>
<g mask="url(#mask0_917_207)">
<path d="M12 24C18.6274 24 24 18.6274 24 12C24 5.37258 18.6274 0 12 0C5.37258 0 0 5.37258 0 12C0 18.6274 5.37258 24 12 24Z" fill="#00C950"/>
<g filter="url(#filter0_dd_917_207)">
<path d="M9.17184 15.308C8.86584 15.308 8.57184 15.269 8.28984 15.191C8.01384 15.107 7.76184 14.996 7.53384 14.858C7.31184 14.714 7.12884 14.555 6.98484 14.381C6.84084 14.201 6.75084 14.009 6.71484 13.805L8.14584 13.4C8.21184 13.574 8.32584 13.727 8.48784 13.859C8.65584 13.985 8.86584 14.051 9.11784 14.057C9.36384 14.063 9.56784 14.006 9.72984 13.886C9.89784 13.766 9.98184 13.61 9.98184 13.418C9.98184 13.268 9.92184 13.136 9.80184 13.022C9.68784 12.908 9.52284 12.821 9.30684 12.761L8.41584 12.536C8.10384 12.458 7.83084 12.335 7.59684 12.167C7.36884 11.999 7.18884 11.795 7.05684 11.555C6.93084 11.309 6.86784 11.03 6.86784 10.718C6.86784 10.112 7.06884 9.64099 7.47084 9.30499C7.87284 8.96299 8.43984 8.79199 9.17184 8.79199C9.57384 8.79199 9.92484 8.84899 10.2249 8.96299C10.5249 9.07099 10.7799 9.23299 10.9899 9.44899C11.2059 9.66499 11.3769 9.93499 11.5029 10.259L10.0809 10.682C10.0329 10.52 9.92784 10.373 9.76584 10.241C9.60984 10.109 9.40584 10.043 9.15384 10.043C8.90184 10.043 8.70384 10.1 8.55984 10.214C8.42184 10.328 8.35284 10.493 8.35284 10.709C8.35284 10.859 8.40984 10.985 8.52384 11.087C8.63784 11.183 8.79384 11.255 8.99184 11.303L9.88284 11.528C10.3929 11.654 10.7889 11.891 11.0709 12.239C11.3589 12.581 11.5029 12.971 11.5029 13.409C11.5029 13.805 11.4099 14.144 11.2239 14.426C11.0439 14.708 10.7799 14.927 10.4319 15.083C10.0839 15.233 9.66384 15.308 9.17184 15.308ZM15.3687 15.308C14.7447 15.308 14.1927 15.17 13.7127 14.894C13.2387 14.612 12.8637 14.228 12.5877 13.742C12.3177 13.25 12.1827 12.686 12.1827 12.05C12.1827 11.414 12.3177 10.853 12.5877 10.367C12.8637 9.87499 13.2387 9.49099 13.7127 9.21499C14.1927 8.93299 14.7447 8.79199 15.3687 8.79199C15.8247 8.79199 16.2417 8.87299 16.6197 9.03499C17.0037 9.19099 17.3337 9.41299 17.6097 9.70099C17.8917 9.98899 18.1077 10.322 18.2577 10.7L16.8987 11.159C16.8087 10.949 16.6857 10.766 16.5297 10.61C16.3797 10.454 16.2057 10.334 16.0077 10.25C15.8157 10.166 15.6027 10.124 15.3687 10.124C15.0387 10.124 14.7447 10.205 14.4867 10.367C14.2287 10.529 14.0277 10.757 13.8837 11.051C13.7397 11.339 13.6677 11.672 13.6677 12.05C13.6677 12.428 13.7397 12.764 13.8837 13.058C14.0337 13.346 14.2377 13.574 14.4957 13.742C14.7597 13.904 15.0597 13.985 15.3957 13.985C15.6417 13.985 15.8607 13.94 16.0527 13.85C16.2447 13.76 16.4097 13.634 16.5477 13.472C16.6917 13.31 16.8147 13.124 16.9167 12.914L18.2757 13.373C18.1317 13.757 17.9187 14.096 17.6367 14.39C17.3547 14.678 17.0217 14.903 16.6377 15.065C16.2537 15.227 15.8307 15.308 15.3687 15.308Z" fill="#7BF1A8"/>
</g>
<path fill-rule="evenodd" clip-rule="evenodd" d="M12 24C18.6275 24 24 18.6275 24 12C24 5.37258 18.6275 0 12 0C5.37258 0 0 5.37258 0 12C0 18.6275 5.37258 24 12 24ZM12 20.7273C16.82 20.7273 20.7273 16.82 20.7273 12C20.7273 7.18006 16.82 3.27273 12 3.27273C7.18006 3.27273 3.27273 7.18006 3.27273 12C3.27273 16.82 7.18006 20.7273 12 20.7273Z" fill="#05DF72"/>
<path fill-rule="evenodd" clip-rule="evenodd" d="M11.9987 20.7275C16.8187 20.7275 20.726 16.8201 20.726 12.0002C20.726 7.18028 16.8187 3.27295 11.9987 3.27295C7.17882 3.27295 3.27148 7.18028 3.27148 12.0002C3.27148 16.8201 7.17882 20.7275 11.9987 20.7275ZM11.9987 19.6366C16.2162 19.6366 19.6352 16.2177 19.6352 12.0002C19.6352 7.7828 16.2162 4.36386 11.9987 4.36386C7.78133 4.36386 4.3624 7.7828 4.3624 12.0002C4.3624 16.2177 7.78133 19.6366 11.9987 19.6366Z" fill="url(#paint0_linear_917_207)"/>
</g>
</g>
<defs>
<filter id="filter0_dd_917_207" x="6.71484" y="8.39199" width="11.5605" height="7.41599" filterUnits="userSpaceOnUse" color-interpolation-filters="sRGB">
<feFlood flood-opacity="0" result="BackgroundImageFix"/>
<feColorMatrix in="SourceAlpha" type="matrix" values="0 0 0 0 0 0 0 0 0 0 0 0 0 0 0 0 0 0 127 0" result="hardAlpha"/>
<feOffset dy="-0.4"/>
<feComposite in2="hardAlpha" operator="out"/>
<feColorMatrix type="matrix" values="0 0 0 0 0.725079 0 0 0 0 0.971261 0 0 0 0 0.811837 0 0 0 1 0"/>
<feBlend mode="normal" in2="BackgroundImageFix" result="effect1_dropShadow_917_207"/>
<feColorMatrix in="SourceAlpha" type="matrix" values="0 0 0 0 0 0 0 0 0 0 0 0 0 0 0 0 0 0 127 0" result="hardAlpha"/>
<feOffset dy="0.5"/>
<feComposite in2="hardAlpha" operator="out"/>
<feColorMatrix type="matrix" values="0 0 0 0 0 0 0 0 0 0.65098 0 0 0 0 0.243137 0 0 0 1 0"/>
<feBlend mode="normal" in2="effect1_dropShadow_917_207" result="effect2_dropShadow_917_207"/>
<feBlend mode="normal" in="SourceGraphic" in2="effect2_dropShadow_917_207" result="shape"/>
</filter>
<linearGradient id="paint0_linear_917_207" x1="13.0878" y1="3.51309" x2="13.0878" y2="23.1488" gradientUnits="userSpaceOnUse">
<stop stop-color="#00A63E"/>
<stop offset="0.5383" stop-color="#00C950"/>
<stop offset="0.9876" stop-color="#B9F8CF"/>
</linearGradient>
<clipPath id="clip0_917_207">
<rect width="24" height="24" fill="white"/>
</clipPath>
</defs>
</svg>
