<svg width="50" height="50" viewBox="0 0 50 50" fill="none" xmlns="http://www.w3.org/2000/svg">
<g filter="url(#filter0_di_2189_312)">
<mask id="mask0_2189_312" style="mask-type:luminance" maskUnits="userSpaceOnUse" x="1" y="1" width="48" height="48">
<path d="M37 1H13C6.37258 1 1 6.37258 1 13V37C1 43.6274 6.37258 49 13 49H37C43.6274 49 49 43.6274 49 37V13C49 6.37258 43.6274 1 37 1Z" fill="white"/>
</mask>
<g mask="url(#mask0_2189_312)">
<path d="M37 1H13C6.37258 1 1 6.37258 1 13V37C1 43.6274 6.37258 49 13 49H37C43.6274 49 49 43.6274 49 37V13C49 6.37258 43.6274 1 37 1Z" fill="url(#paint0_linear_2189_312)" fill-opacity="0.04"/>
<g opacity="0.5" filter="url(#filter1_f_2189_312)">
<path d="M25 39C32.732 39 39 32.732 39 25C39 17.268 32.732 11 25 11C17.268 11 11 17.268 11 25C11 32.732 17.268 39 25 39Z" fill="url(#paint1_linear_2189_312)"/>
<path d="M30.2137 29.2816L30.8356 25.3301H26.9452V22.767C26.9452 21.6857 27.4877 20.6311 29.2302 20.6311H31V17.267C31 17.267 29.3945 17 27.8603 17C24.6548 17 22.5617 18.8929 22.5617 22.3184V25.3301H19V29.2816H22.5617V38.8345C23.2767 38.944 24.0082 39 24.7534 39C25.4986 39 26.2302 38.944 26.9452 38.8345V29.2816H30.2137Z" fill="white"/>
</g>
<path d="M25 39C32.732 39 39 32.732 39 25C39 17.268 32.732 11 25 11C17.268 11 11 17.268 11 25C11 32.732 17.268 39 25 39Z" fill="url(#paint2_linear_2189_312)"/>
<path d="M30.2137 29.2816L30.8356 25.3301H26.9452V22.767C26.9452 21.6857 27.4877 20.6311 29.2302 20.6311H31V17.267C31 17.267 29.3945 17 27.8603 17C24.6548 17 22.5617 18.8929 22.5617 22.3184V25.3301H19V29.2816H22.5617V38.8345C23.2767 38.944 24.0082 39 24.7534 39C25.4986 39 26.2302 38.944 26.9452 38.8345V29.2816H30.2137Z" fill="white"/>
<g filter="url(#filter2_f_2189_312)">
<path d="M25.5 55C31.8513 55 37 52.0899 37 48.5C37 44.9101 31.8513 42 25.5 42C19.1487 42 14 44.9101 14 48.5C14 52.0899 19.1487 55 25.5 55Z" fill="#0A77E8"/>
</g>
</g>
<path d="M37 1H13C6.37258 1 1 6.37258 1 13V37C1 43.6274 6.37258 49 13 49H37C43.6274 49 49 43.6274 49 37V13C49 6.37258 43.6274 1 37 1Z" stroke="url(#paint3_linear_2189_312)" stroke-opacity="0.5" stroke-width="0.8"/>
</g>
<defs>
<filter id="filter0_di_2189_312" x="-7.40039" y="-11.3999" width="80.8008" height="80.7998" filterUnits="userSpaceOnUse" color-interpolation-filters="sRGB">
<feFlood flood-opacity="0" result="BackgroundImageFix"/>
<feColorMatrix in="SourceAlpha" type="matrix" values="0 0 0 0 0 0 0 0 0 0 0 0 0 0 0 0 0 0 127 0" result="hardAlpha"/>
<feOffset dx="8" dy="4"/>
<feGaussianBlur stdDeviation="8"/>
<feComposite in2="hardAlpha" operator="out"/>
<feColorMatrix type="matrix" values="0 0 0 0 0 0 0 0 0 0 0 0 0 0 0 0 0 0 0.08 0"/>
<feBlend mode="normal" in2="BackgroundImageFix" result="effect1_dropShadow_2189_312"/>
<feBlend mode="normal" in="SourceGraphic" in2="effect1_dropShadow_2189_312" result="shape"/>
<feColorMatrix in="SourceAlpha" type="matrix" values="0 0 0 0 0 0 0 0 0 0 0 0 0 0 0 0 0 0 127 0" result="hardAlpha"/>
<feOffset/>
<feGaussianBlur stdDeviation="4"/>
<feComposite in2="hardAlpha" operator="arithmetic" k2="-1" k3="1"/>
<feColorMatrix type="matrix" values="0 0 0 0 0.158333 0 0 0 0 0.495 0 0 0 0 1 0 0 0 0.32 0"/>
<feBlend mode="normal" in2="shape" result="effect2_innerShadow_2189_312"/>
</filter>
<filter id="filter1_f_2189_312" x="-1" y="-1" width="52" height="52" filterUnits="userSpaceOnUse" color-interpolation-filters="sRGB">
<feFlood flood-opacity="0" result="BackgroundImageFix"/>
<feBlend mode="normal" in="SourceGraphic" in2="BackgroundImageFix" result="shape"/>
<feGaussianBlur stdDeviation="6" result="effect1_foregroundBlur_2189_312"/>
</filter>
<filter id="filter2_f_2189_312" x="-4" y="24" width="59" height="49" filterUnits="userSpaceOnUse" color-interpolation-filters="sRGB">
<feFlood flood-opacity="0" result="BackgroundImageFix"/>
<feBlend mode="normal" in="SourceGraphic" in2="BackgroundImageFix" result="shape"/>
<feGaussianBlur stdDeviation="9" result="effect1_foregroundBlur_2189_312"/>
</filter>
<linearGradient id="paint0_linear_2189_312" x1="1" y1="1" x2="49" y2="49" gradientUnits="userSpaceOnUse">
<stop stop-color="#F8FBFF"/>
<stop offset="1" stop-color="white" stop-opacity="0"/>
</linearGradient>
<linearGradient id="paint1_linear_2189_312" x1="25" y1="11" x2="25" y2="38.917" gradientUnits="userSpaceOnUse">
<stop stop-color="#18ACFE"/>
<stop offset="1" stop-color="#0163E0"/>
</linearGradient>
<linearGradient id="paint2_linear_2189_312" x1="25" y1="11" x2="25" y2="38.917" gradientUnits="userSpaceOnUse">
<stop stop-color="#18ACFE"/>
<stop offset="1" stop-color="#0163E0"/>
</linearGradient>
<linearGradient id="paint3_linear_2189_312" x1="2" y1="-1.61216e-07" x2="47.5" y2="49" gradientUnits="userSpaceOnUse">
<stop stop-color="#D8D8D8" stop-opacity="0.05"/>
<stop offset="1" stop-color="white" stop-opacity="0.4"/>
</linearGradient>
</defs>
</svg>
