<svg width="50" height="50" viewBox="0 0 50 50" fill="none" xmlns="http://www.w3.org/2000/svg">
<g filter="url(#filter0_di_2189_329)">
<mask id="mask0_2189_329" style="mask-type:luminance" maskUnits="userSpaceOnUse" x="1" y="1" width="48" height="48">
<path d="M37 1H13C6.37258 1 1 6.37258 1 13V37C1 43.6274 6.37258 49 13 49H37C43.6274 49 49 43.6274 49 37V13C49 6.37258 43.6274 1 37 1Z" fill="white"/>
</mask>
<g mask="url(#mask0_2189_329)">
<path d="M37 1H13C6.37258 1 1 6.37258 1 13V37C1 43.6274 6.37258 49 13 49H37C43.6274 49 49 43.6274 49 37V13C49 6.37258 43.6274 1 37 1Z" fill="url(#paint0_linear_2189_329)" fill-opacity="0.04"/>
<g opacity="0.5" filter="url(#filter1_f_2189_329)">
<path d="M17.4491 28.7931C17.6053 27.4992 18.136 26.7748 19.136 26.0322C20.5669 25.0264 22.3541 25.5953 22.3541 25.5953V22.2202C22.7887 22.209 23.2235 22.2348 23.6532 22.2971V26.6406C23.6532 26.6406 21.8664 26.0717 20.4356 27.078C19.4361 27.8201 18.9043 28.5451 18.7486 29.839C18.7437 30.5416 18.8755 31.46 19.4827 32.2541C19.3325 32.1771 19.1796 32.0894 19.0237 31.991C17.6862 31.0928 17.4425 29.7454 17.4491 28.7931ZM31.0332 15.9795C30.0489 14.9009 29.6767 13.8119 29.5422 13.0469H30.7803C30.7803 13.0469 30.5335 15.0527 32.3328 17.0253L32.3577 17.0518C31.8727 16.7468 31.428 16.3867 31.0332 15.9795ZM36.9981 19.0374V23.2936C36.9981 23.2936 35.4181 23.2317 34.2488 22.9342C32.616 22.5181 31.5666 21.88 31.5666 21.88C31.5666 21.88 30.8417 21.425 30.7831 21.3933V30.1822C30.7831 30.6716 30.6491 31.8937 30.2405 32.913C29.7071 34.2465 28.884 35.1217 28.7326 35.3006C28.7326 35.3006 27.7315 36.4837 25.9653 37.2805C24.3733 37.9992 22.9755 37.981 22.5577 37.9992C22.5577 37.9992 20.1415 38.0949 17.9672 36.6819C17.4971 36.3704 17.0581 36.0177 16.6562 35.6282L16.6672 35.636C18.8419 37.049 21.2575 36.9533 21.2575 36.9533C21.6759 36.9351 23.0736 36.9533 24.6651 36.2346C26.4297 35.4379 27.4324 34.2548 27.4324 34.2548C27.5822 34.0759 28.4091 33.2006 28.9403 31.8667C29.3478 30.8479 29.483 29.6252 29.483 29.1359V20.348C29.5416 20.3802 30.2659 20.8352 30.2659 20.8352C30.2659 20.8352 31.316 21.4739 32.9487 21.8894C34.1185 22.1869 35.6981 22.2488 35.6981 22.2488V18.9136C36.2385 19.0348 36.6992 19.0676 36.9981 19.0374Z" fill="#EE1D52"/>
<path d="M35.7009 18.9136V22.2477C35.7009 22.2477 34.1213 22.1858 32.9515 21.8884C31.3188 21.4723 30.2688 20.8342 30.2688 20.8342C30.2688 20.8342 29.5444 20.3792 29.4858 20.3469V29.1369C29.4858 29.6263 29.3518 30.8489 28.9432 31.8677C28.4098 33.2017 27.5867 34.0769 27.4353 34.2558C27.4353 34.2558 26.4336 35.4389 24.668 36.2357C23.0765 36.9544 21.6788 36.9362 21.2604 36.9544C21.2604 36.9544 18.8447 37.0501 16.67 35.6371L16.6591 35.6293C16.4295 35.4069 16.2134 35.1722 16.0118 34.9262C15.3178 34.08 14.8924 33.0794 14.7855 32.7939V32.7903C14.6135 32.2942 14.2521 31.1027 14.3015 29.9487C14.3888 27.9127 15.1051 26.663 15.2944 26.3499C15.796 25.4962 16.4483 24.7323 17.2223 24.0924C17.9054 23.5401 18.6796 23.1007 19.5132 22.7922C20.4144 22.43 21.3794 22.2358 22.3565 22.2202V25.5953C22.3565 25.5953 20.5691 25.0285 19.1388 26.0322C18.1388 26.7748 17.6081 27.4992 17.4519 28.7931C17.4453 29.7454 17.689 31.0928 19.0254 31.9915C19.1813 32.0903 19.3343 32.178 19.4845 32.2546C19.7179 32.5581 20.0021 32.8226 20.3255 33.0373C21.631 33.8637 22.7249 33.9214 24.1238 33.3847C25.0565 33.0259 25.7586 32.2172 26.0842 31.3211C26.2888 30.7616 26.2861 30.1983 26.2861 29.6159V13.0469H29.5417C29.6763 13.8119 30.0485 14.9009 31.0328 15.9795C31.4276 16.3867 31.8724 16.7468 32.3573 17.0518C32.5006 17.2001 33.2331 17.9328 34.1734 18.3827C34.6596 18.6152 35.1722 18.7934 35.7009 18.9136Z" fill="black"/>
<path d="M13.4922 31.7568V31.7594L13.573 31.9783C13.5637 31.9528 13.5337 31.8753 13.4922 31.7568Z" fill="#69C9D0"/>
<path d="M19.5128 22.7916C18.6792 23.1002 17.905 23.5396 17.2219 24.0918C16.4476 24.7332 15.7955 25.4987 15.2946 26.354C15.1052 26.6661 14.389 27.9168 14.3016 29.9528C14.2522 31.1068 14.6136 32.2983 14.7856 32.7944V32.798C14.8941 33.081 15.3179 34.0815 16.0119 34.9303C16.2135 35.1763 16.4296 35.4111 16.6592 35.6334C15.9236 35.1457 15.2675 34.5562 14.7124 33.8839C14.0243 33.0451 13.6 32.0549 13.4893 31.7626C13.4892 31.7605 13.4892 31.7584 13.4893 31.7564V31.7527C13.3168 31.2571 12.9543 30.0651 13.0048 28.9096C13.0921 26.8736 13.8084 25.6239 13.9977 25.3108C14.4985 24.4553 15.1507 23.6898 15.9251 23.0486C16.608 22.4961 17.3823 22.0567 18.216 21.7484C18.736 21.5416 19.2778 21.3891 19.8319 21.2934C20.6669 21.1537 21.5198 21.1415 22.3588 21.2575V22.2196C21.3808 22.2349 20.4148 22.4291 19.5128 22.7916Z" fill="#69C9D0"/>
<path d="M29.5438 13.0464H26.2881V29.6159C26.2881 30.1983 26.2881 30.76 26.0863 31.3211C25.7575 32.2167 25.058 33.0253 24.1258 33.3842C22.7265 33.923 21.6326 33.8632 20.3276 33.0368C20.0036 32.823 19.7187 32.5594 19.4844 32.2567C20.5962 32.8251 21.5913 32.8152 22.8241 32.341C23.7558 31.9821 24.4563 31.1734 24.784 30.2774C24.9891 29.7178 24.9864 29.1546 24.9864 28.5726V12H29.4819C29.4819 12 29.4315 12.4119 29.5438 13.0464ZM35.7002 17.991V18.9131C35.1725 18.7926 34.6609 18.6145 34.1755 18.3821C33.2352 17.9323 32.5026 17.1995 32.3594 17.0513C32.5256 17.1559 32.6981 17.2511 32.8759 17.3363C34.0192 17.8834 35.1451 18.0467 35.7002 17.991Z" fill="#69C9D0"/>
</g>
<path d="M17.4491 28.7931C17.6053 27.4992 18.136 26.7748 19.136 26.0322C20.5669 25.0264 22.3541 25.5953 22.3541 25.5953V22.2202C22.7887 22.209 23.2235 22.2348 23.6532 22.2971V26.6406C23.6532 26.6406 21.8664 26.0717 20.4356 27.078C19.4361 27.8201 18.9043 28.5451 18.7486 29.839C18.7437 30.5416 18.8755 31.46 19.4827 32.2541C19.3325 32.1771 19.1796 32.0894 19.0237 31.991C17.6862 31.0928 17.4425 29.7454 17.4491 28.7931ZM31.0332 15.9795C30.0489 14.9009 29.6767 13.8119 29.5422 13.0469H30.7803C30.7803 13.0469 30.5335 15.0527 32.3328 17.0253L32.3577 17.0518C31.8727 16.7468 31.428 16.3867 31.0332 15.9795ZM36.9981 19.0374V23.2936C36.9981 23.2936 35.4181 23.2317 34.2488 22.9342C32.616 22.5181 31.5666 21.88 31.5666 21.88C31.5666 21.88 30.8417 21.425 30.7831 21.3933V30.1822C30.7831 30.6716 30.6491 31.8937 30.2405 32.913C29.7071 34.2465 28.884 35.1217 28.7326 35.3006C28.7326 35.3006 27.7315 36.4837 25.9653 37.2805C24.3733 37.9992 22.9755 37.981 22.5577 37.9992C22.5577 37.9992 20.1415 38.0949 17.9672 36.6819C17.4971 36.3704 17.0581 36.0177 16.6562 35.6282L16.6672 35.636C18.8419 37.049 21.2575 36.9533 21.2575 36.9533C21.6759 36.9351 23.0736 36.9533 24.6651 36.2346C26.4297 35.4379 27.4324 34.2548 27.4324 34.2548C27.5822 34.0759 28.4091 33.2006 28.9403 31.8667C29.3478 30.8479 29.483 29.6252 29.483 29.1359V20.348C29.5416 20.3802 30.2659 20.8352 30.2659 20.8352C30.2659 20.8352 31.316 21.4739 32.9487 21.8894C34.1185 22.1869 35.6981 22.2488 35.6981 22.2488V18.9136C36.2385 19.0348 36.6992 19.0676 36.9981 19.0374Z" fill="#EE1D52"/>
<path d="M35.7009 18.9136V22.2477C35.7009 22.2477 34.1213 22.1858 32.9515 21.8884C31.3188 21.4723 30.2688 20.8342 30.2688 20.8342C30.2688 20.8342 29.5444 20.3792 29.4858 20.3469V29.1369C29.4858 29.6263 29.3518 30.8489 28.9432 31.8677C28.4098 33.2017 27.5867 34.0769 27.4353 34.2558C27.4353 34.2558 26.4336 35.4389 24.668 36.2357C23.0765 36.9544 21.6788 36.9362 21.2604 36.9544C21.2604 36.9544 18.8447 37.0501 16.67 35.6371L16.6591 35.6293C16.4295 35.4069 16.2134 35.1722 16.0118 34.9262C15.3178 34.08 14.8924 33.0794 14.7855 32.7939V32.7903C14.6135 32.2942 14.2521 31.1027 14.3015 29.9487C14.3888 27.9127 15.1051 26.663 15.2944 26.3499C15.796 25.4962 16.4483 24.7323 17.2223 24.0924C17.9054 23.5401 18.6796 23.1007 19.5132 22.7922C20.4144 22.43 21.3794 22.2358 22.3565 22.2202V25.5953C22.3565 25.5953 20.5691 25.0285 19.1388 26.0322C18.1388 26.7748 17.6081 27.4992 17.4519 28.7931C17.4453 29.7454 17.689 31.0928 19.0254 31.9915C19.1813 32.0903 19.3343 32.178 19.4845 32.2546C19.7179 32.5581 20.0021 32.8226 20.3255 33.0373C21.631 33.8637 22.7249 33.9214 24.1238 33.3847C25.0565 33.0259 25.7586 32.2172 26.0842 31.3211C26.2888 30.7616 26.2861 30.1983 26.2861 29.6159V13.0469H29.5417C29.6763 13.8119 30.0485 14.9009 31.0328 15.9795C31.4276 16.3867 31.8724 16.7468 32.3573 17.0518C32.5006 17.2001 33.2331 17.9328 34.1734 18.3827C34.6596 18.6152 35.1722 18.7934 35.7009 18.9136Z" fill="white"/>
<path d="M13.4883 31.7568V31.7594L13.5691 31.9783C13.5598 31.9528 13.5298 31.8753 13.4883 31.7568Z" fill="#69C9D0"/>
<path d="M19.5128 22.7916C18.6792 23.1002 17.905 23.5396 17.2219 24.0918C16.4476 24.7332 15.7955 25.4987 15.2946 26.354C15.1052 26.6661 14.389 27.9168 14.3016 29.9528C14.2522 31.1068 14.6136 32.2983 14.7856 32.7944V32.798C14.8941 33.081 15.3179 34.0815 16.0119 34.9303C16.2135 35.1763 16.4296 35.4111 16.6592 35.6334C15.9236 35.1457 15.2675 34.5562 14.7124 33.8839C14.0243 33.0451 13.6 32.0549 13.4893 31.7626C13.4892 31.7605 13.4892 31.7584 13.4893 31.7564V31.7527C13.3168 31.2571 12.9543 30.0651 13.0048 28.9096C13.0921 26.8736 13.8084 25.6239 13.9977 25.3108C14.4985 24.4553 15.1507 23.6898 15.9251 23.0486C16.608 22.4961 17.3823 22.0567 18.216 21.7484C18.736 21.5416 19.2778 21.3891 19.8319 21.2934C20.6669 21.1537 21.5198 21.1415 22.3588 21.2575V22.2196C21.3808 22.2349 20.4148 22.4291 19.5128 22.7916Z" fill="#69C9D0"/>
<path d="M29.5438 13.0464H26.2881V29.6159C26.2881 30.1983 26.2881 30.76 26.0863 31.3211C25.7575 32.2167 25.058 33.0253 24.1258 33.3842C22.7265 33.923 21.6326 33.8632 20.3276 33.0368C20.0036 32.823 19.7187 32.5594 19.4844 32.2567C20.5962 32.8251 21.5913 32.8152 22.8241 32.341C23.7558 31.9821 24.4563 31.1734 24.784 30.2774C24.9891 29.7178 24.9864 29.1546 24.9864 28.5726V12H29.4819C29.4819 12 29.4315 12.4119 29.5438 13.0464ZM35.7002 17.991V18.9131C35.1725 18.7926 34.6609 18.6145 34.1755 18.3821C33.2352 17.9323 32.5026 17.1995 32.3594 17.0513C32.5256 17.1559 32.6981 17.2511 32.8759 17.3363C34.0192 17.8834 35.1451 18.0467 35.7002 17.991Z" fill="#69C9D0"/>
<g filter="url(#filter2_f_2189_329)">
<path d="M25.5 55C31.8513 55 37 52.0899 37 48.5C37 44.9101 31.8513 42 25.5 42C19.1487 42 14 44.9101 14 48.5C14 52.0899 19.1487 55 25.5 55Z" fill="#ED2256"/>
</g>
</g>
<path d="M37 1H13C6.37258 1 1 6.37258 1 13V37C1 43.6274 6.37258 49 13 49H37C43.6274 49 49 43.6274 49 37V13C49 6.37258 43.6274 1 37 1Z" stroke="url(#paint1_linear_2189_329)" stroke-opacity="0.5" stroke-width="0.8"/>
</g>
<defs>
<filter id="filter0_di_2189_329" x="-7.40039" y="-11.3999" width="80.8008" height="80.7998" filterUnits="userSpaceOnUse" color-interpolation-filters="sRGB">
<feFlood flood-opacity="0" result="BackgroundImageFix"/>
<feColorMatrix in="SourceAlpha" type="matrix" values="0 0 0 0 0 0 0 0 0 0 0 0 0 0 0 0 0 0 127 0" result="hardAlpha"/>
<feOffset dx="8" dy="4"/>
<feGaussianBlur stdDeviation="8"/>
<feComposite in2="hardAlpha" operator="out"/>
<feColorMatrix type="matrix" values="0 0 0 0 0 0 0 0 0 0 0 0 0 0 0 0 0 0 0.08 0"/>
<feBlend mode="normal" in2="BackgroundImageFix" result="effect1_dropShadow_2189_329"/>
<feBlend mode="normal" in="SourceGraphic" in2="effect1_dropShadow_2189_329" result="shape"/>
<feColorMatrix in="SourceAlpha" type="matrix" values="0 0 0 0 0 0 0 0 0 0 0 0 0 0 0 0 0 0 127 0" result="hardAlpha"/>
<feOffset/>
<feGaussianBlur stdDeviation="4"/>
<feComposite in2="hardAlpha" operator="arithmetic" k2="-1" k3="1"/>
<feColorMatrix type="matrix" values="0 0 0 0 0.0323264 0 0 0 0 0.511567 0 0 0 0 0.554167 0 0 0 1 0"/>
<feBlend mode="normal" in2="shape" result="effect2_innerShadow_2189_329"/>
</filter>
<filter id="filter1_f_2189_329" x="1" y="0" width="47.998" height="50.0005" filterUnits="userSpaceOnUse" color-interpolation-filters="sRGB">
<feFlood flood-opacity="0" result="BackgroundImageFix"/>
<feBlend mode="normal" in="SourceGraphic" in2="BackgroundImageFix" result="shape"/>
<feGaussianBlur stdDeviation="6" result="effect1_foregroundBlur_2189_329"/>
</filter>
<filter id="filter2_f_2189_329" x="-4" y="24" width="59" height="49" filterUnits="userSpaceOnUse" color-interpolation-filters="sRGB">
<feFlood flood-opacity="0" result="BackgroundImageFix"/>
<feBlend mode="normal" in="SourceGraphic" in2="BackgroundImageFix" result="shape"/>
<feGaussianBlur stdDeviation="9" result="effect1_foregroundBlur_2189_329"/>
</filter>
<linearGradient id="paint0_linear_2189_329" x1="1" y1="1" x2="49" y2="49" gradientUnits="userSpaceOnUse">
<stop stop-color="#F8FBFF"/>
<stop offset="1" stop-color="white" stop-opacity="0"/>
</linearGradient>
<linearGradient id="paint1_linear_2189_329" x1="2" y1="-1.61216e-07" x2="47.5" y2="49" gradientUnits="userSpaceOnUse">
<stop stop-color="#D8D8D8" stop-opacity="0.05"/>
<stop offset="1" stop-color="white" stop-opacity="0.4"/>
</linearGradient>
</defs>
</svg>
