<svg width="81" height="80" viewBox="0 0 81 80" fill="none" xmlns="http://www.w3.org/2000/svg">
<g clip-path="url(#clip0_2509_188)">
<g filter="url(#filter0_di_2509_188)">
<mask id="mask0_2509_188" style="mask-type:luminance" maskUnits="userSpaceOnUse" x="2" y="1" width="77" height="78">
<path d="M59.7895 1.6001H21.3895C10.7856 1.6001 2.18945 10.1962 2.18945 20.8001V59.2001C2.18945 69.804 10.7856 78.4001 21.3895 78.4001H59.7895C70.3933 78.4001 78.9895 69.804 78.9895 59.2001V20.8001C78.9895 10.1962 70.3933 1.6001 59.7895 1.6001Z" fill="white"/>
</mask>
<g mask="url(#mask0_2509_188)">
<path d="M59.7895 1.6001H21.3895C10.7856 1.6001 2.18945 10.1962 2.18945 20.8001V59.2001C2.18945 69.804 10.7856 78.4001 21.3895 78.4001H59.7895C70.3933 78.4001 78.9895 69.804 78.9895 59.2001V20.8001C78.9895 10.1962 70.3933 1.6001 59.7895 1.6001Z" fill="url(#paint0_linear_2509_188)" fill-opacity="0.04"/>
<g opacity="0.5" filter="url(#filter1_f_2509_188)">
<path d="M18.5807 30.3058C18.7863 27.1397 21.3317 24.6586 24.5007 24.5014C29.0893 24.2742 35.6479 24 40.5895 24C45.5311 24 52.0896 24.2742 56.6783 24.5014C59.8472 24.6586 62.3927 27.1397 62.5983 30.3058C62.7952 33.339 62.9895 37.0715 62.9895 40C62.9895 42.9285 62.7952 46.661 62.5983 49.6942C62.3927 52.8603 59.8472 55.3414 56.6783 55.4986C52.0896 55.7258 45.5311 56 40.5895 56C35.6479 56 29.0893 55.7258 24.5007 55.4986C21.3317 55.3414 18.7863 52.8603 18.5807 49.6942C18.3837 46.661 18.1895 42.9285 18.1895 40C18.1895 37.0715 18.3837 33.339 18.5807 30.3058Z" fill="#FC0D1B"/>
<path d="M35.7891 33.6001V46.4001L48.5891 40.0001L35.7891 33.6001Z" fill="white"/>
</g>
<path d="M18.5807 30.3058C18.7863 27.1397 21.3317 24.6586 24.5007 24.5014C29.0893 24.2742 35.6479 24 40.5895 24C45.5311 24 52.0896 24.2742 56.6783 24.5014C59.8472 24.6586 62.3927 27.1397 62.5983 30.3058C62.7952 33.339 62.9895 37.0715 62.9895 40C62.9895 42.9285 62.7952 46.661 62.5983 49.6942C62.3927 52.8603 59.8472 55.3414 56.6783 55.4986C52.0896 55.7258 45.5311 56 40.5895 56C35.6479 56 29.0893 55.7258 24.5007 55.4986C21.3317 55.3414 18.7863 52.8603 18.5807 49.6942C18.3837 46.661 18.1895 42.9285 18.1895 40C18.1895 37.0715 18.3837 33.339 18.5807 30.3058Z" fill="#FC0D1B"/>
<path d="M35.7891 33.6001V46.4001L48.5891 40.0001L35.7891 33.6001Z" fill="white"/>
<g filter="url(#filter2_f_2509_188)">
<path d="M41.3902 88.0002C51.5523 88.0002 59.7902 83.344 59.7902 77.6002C59.7902 71.8564 51.5523 67.2002 41.3902 67.2002C31.2282 67.2002 22.9902 71.8564 22.9902 77.6002C22.9902 83.344 31.2282 88.0002 41.3902 88.0002Z" fill="#FC0D1B"/>
</g>
</g>
<path d="M59.7895 1.6001H21.3895C10.7856 1.6001 2.18945 10.1962 2.18945 20.8001V59.2001C2.18945 69.804 10.7856 78.4001 21.3895 78.4001H59.7895C70.3933 78.4001 78.9895 69.804 78.9895 59.2001V20.8001C78.9895 10.1962 70.3933 1.6001 59.7895 1.6001Z" stroke="url(#paint1_linear_2509_188)" stroke-opacity="0.5" stroke-width="0.8"/>
</g>
<g style="mix-blend-mode:screen" filter="url(#filter3_f_2509_188)">
<path d="M29.3902 43.1999C37.3431 43.1999 43.7902 36.7528 43.7902 28.7999C43.7902 20.847 37.3431 14.3999 29.3902 14.3999C21.4373 14.3999 14.9902 20.847 14.9902 28.7999C14.9902 36.7528 21.4373 43.1999 29.3902 43.1999Z" fill="white" fill-opacity="0.18"/>
</g>
</g>
<defs>
<filter id="filter0_di_2509_188" x="-6.21094" y="-10.7998" width="109.6" height="109.6" filterUnits="userSpaceOnUse" color-interpolation-filters="sRGB">
<feFlood flood-opacity="0" result="BackgroundImageFix"/>
<feColorMatrix in="SourceAlpha" type="matrix" values="0 0 0 0 0 0 0 0 0 0 0 0 0 0 0 0 0 0 127 0" result="hardAlpha"/>
<feOffset dx="8" dy="4"/>
<feGaussianBlur stdDeviation="8"/>
<feComposite in2="hardAlpha" operator="out"/>
<feColorMatrix type="matrix" values="0 0 0 0 0 0 0 0 0 0 0 0 0 0 0 0 0 0 0.08 0"/>
<feBlend mode="normal" in2="BackgroundImageFix" result="effect1_dropShadow_2509_188"/>
<feBlend mode="normal" in="SourceGraphic" in2="effect1_dropShadow_2509_188" result="shape"/>
<feColorMatrix in="SourceAlpha" type="matrix" values="0 0 0 0 0 0 0 0 0 0 0 0 0 0 0 0 0 0 127 0" result="hardAlpha"/>
<feOffset/>
<feGaussianBlur stdDeviation="4"/>
<feComposite in2="hardAlpha" operator="arithmetic" k2="-1" k3="1"/>
<feColorMatrix type="matrix" values="0 0 0 0 0.988235 0 0 0 0 0.0509804 0 0 0 0 0.105882 0 0 0 0.32 0"/>
<feBlend mode="normal" in2="shape" result="effect2_innerShadow_2509_188"/>
</filter>
<filter id="filter1_f_2509_188" x="6.18945" y="12" width="68.8008" height="56" filterUnits="userSpaceOnUse" color-interpolation-filters="sRGB">
<feFlood flood-opacity="0" result="BackgroundImageFix"/>
<feBlend mode="normal" in="SourceGraphic" in2="BackgroundImageFix" result="shape"/>
<feGaussianBlur stdDeviation="6" result="effect1_foregroundBlur_2509_188"/>
</filter>
<filter id="filter2_f_2509_188" x="4.99023" y="49.2002" width="72.8008" height="56.8" filterUnits="userSpaceOnUse" color-interpolation-filters="sRGB">
<feFlood flood-opacity="0" result="BackgroundImageFix"/>
<feBlend mode="normal" in="SourceGraphic" in2="BackgroundImageFix" result="shape"/>
<feGaussianBlur stdDeviation="9" result="effect1_foregroundBlur_2509_188"/>
</filter>
<filter id="filter3_f_2509_188" x="-5.00977" y="-5.6001" width="68.8008" height="68.8" filterUnits="userSpaceOnUse" color-interpolation-filters="sRGB">
<feFlood flood-opacity="0" result="BackgroundImageFix"/>
<feBlend mode="normal" in="SourceGraphic" in2="BackgroundImageFix" result="shape"/>
<feGaussianBlur stdDeviation="10" result="effect1_foregroundBlur_2509_188"/>
</filter>
<linearGradient id="paint0_linear_2509_188" x1="2.18945" y1="1.6001" x2="78.9895" y2="78.4001" gradientUnits="userSpaceOnUse">
<stop stop-color="#F8FBFF"/>
<stop offset="1" stop-color="white" stop-opacity="0"/>
</linearGradient>
<linearGradient id="paint1_linear_2509_188" x1="3.78945" y1="9.73347e-05" x2="76.5895" y2="78.4001" gradientUnits="userSpaceOnUse">
<stop stop-color="#D8D8D8" stop-opacity="0.05"/>
<stop offset="1" stop-color="white" stop-opacity="0.4"/>
</linearGradient>
<clipPath id="clip0_2509_188">
<rect width="80" height="80" fill="white" transform="translate(0.589844)"/>
</clipPath>
</defs>
</svg>
